<?xml version="1.0" encoding="utf-8"?>
<!-- Generator: Adobe Illustrator 25.0.1, SVG Export Plug-In . SVG Version: 6.00 Build 0)  -->
<svg version="1.1" id="Layer_1" xmlns="http://www.w3.org/2000/svg" xmlns:xlink="http://www.w3.org/1999/xlink" x="0px" y="0px"
	 viewBox="0 0 1920 1080" style="enable-background:new 0 0 1920 1080;" xml:space="preserve">
<style type="text/css">
	.st0{fill:#F5871F;}
	.st1{fill:none;stroke:#231F20;stroke-width:19;stroke-miterlimit:10;}
</style>
<g>
	<path class="st0" d="M931.07,142.1c-27.43,0.74-54.62,6.24-79.89,16.39c-25.24,10.23-48.52,24.86-68.69,42.85
		c-20.14,18.04-37.03,39.48-50.07,62.91c-6.55,11.71-11.98,24.01-16.39,36.61c-4.41,12.61-7.77,25.56-10.07,38.67l-1.5,9.86
		c-0.38,3.3-0.68,6.61-1.03,9.92c-0.08,0.83-0.18,1.65-0.24,2.48l-0.13,2.49l-0.26,4.97c-0.07,1.66-0.21,3.31-0.22,4.97l-0.01,4.98
		c-0.03,13.26,0.88,26.52,3.12,39.54c4.37,26.03,12.83,51.34,25.48,74.32c6.27,11.51,13.48,22.47,21.51,32.76l3.07,3.81
		c1.04,1.26,2,2.58,3.11,3.77l6.48,7.32l6.81,7c2.3,2.3,4.74,4.46,7.09,6.7c19.26,17.44,41.32,31.64,65.08,41.49
		c23.78,9.77,49.11,15.32,74.56,16.19c12.73,0.37,25.46-0.36,37.99-2.19c12.53-1.83,24.89-4.74,36.82-8.86
		c23.88-8.17,46.26-20.5,65.85-36.26c19.55-15.81,36.35-34.89,49.61-56.07c13.18-21.25,22.67-44.59,28.22-68.73
		c2.7-12.09,4.34-24.38,5.03-36.7c0.68-12.32,0.43-24.7-1.01-36.93c-2.79-24.45-9.45-48.37-19.9-70.41
		c-10.47-22.02-24.53-42.15-41.41-59.34l42.85,0.01L955.4,422.98l-51-47.95l175.7-178.72l22.39-22.78l20.46,22.78
		c20.58,22.92,37.14,49.19,48.97,77.3c11.8,28.14,18.7,58.13,20.75,88.32c1.07,15.1,0.71,30.25-0.8,45.27
		c-1.52,15.01-4.21,29.9-8.16,44.43c-8.04,29.02-20.8,56.61-37.69,81.28c-16.98,24.61-37.95,46.32-61.91,63.96
		c-23.99,17.59-51.02,30.93-79.47,39.24c-14.21,4.19-28.83,6.96-43.52,8.44c-14.7,1.48-29.48,1.65-44.15,0.56
		c-29.35-2.31-58.12-10.03-84.57-22.32c-26.44-12.37-50.43-29.43-70.94-49.76c-2.51-2.6-5.09-5.12-7.53-7.78l-7.19-8.08l-6.8-8.4
		c-1.16-1.38-2.17-2.88-3.25-4.31l-3.19-4.35c-8.34-11.72-15.7-24.1-21.99-36.98c-12.68-25.72-20.61-53.6-24.06-81.83
		c-1.78-14.12-2.12-28.38-1.45-42.53l0.25-5.31c0.1-1.77,0.32-3.53,0.47-5.29l0.51-5.29l0.26-2.64c0.11-0.88,0.25-1.75,0.37-2.63
		c0.52-3.5,1.01-7,1.57-10.49l2.06-10.4c3.05-13.8,7.22-27.32,12.46-40.39c5.24-13.06,11.51-25.7,18.9-37.63
		c14.71-23.88,33.25-45.3,54.81-62.95c21.6-17.6,46.1-31.47,72.18-40.7C876,145.9,903.64,141.61,931.07,142.1z"/>
</g>
<g>
	<polygon class="st0" points="790.1,301.1 963.82,413.11 931.84,451.54 	"/>
</g>
<path class="st1" d="M947.27,498.79"/>
<g>
	<g>
		<path class="st0" d="M531.58,694.88h47.19c37.02,0,62,12.56,62,49.07c0,35.08-24.85,51.47-61,51.47H552.6v66.11h-21.02V694.88z
			 M577.12,778.22c28.89,0,42.68-10.56,42.68-34.27c0-24.03-14.66-31.87-43.68-31.87H552.6v66.14H577.12z"/>
		<path class="st0" d="M671.54,694.88h51.75c33.65,0,57.82,12.19,57.82,46.9c0,33.28-24.16,49.31-57.82,49.31h-30.72v70.44h-21.02
			V694.88z M720.27,773.89c25.71,0,39.86-10.51,39.86-32.11c0-21.92-14.15-29.7-39.86-29.7h-27.7v61.81H720.27z M719.14,785.28
			l16.47-10.97l50.41,87.22H762.2L719.14,785.28z"/>
		<path class="st0" d="M802.67,777.6c0-53.37,29.12-85.77,70.62-85.77s70.62,32.49,70.62,85.77c0,53.37-29.12,86.97-70.62,86.97
			S802.67,830.97,802.67,777.6z M922.18,777.6c0-41.51-19.4-67.13-48.9-67.13s-48.9,25.61-48.9,67.13s19.4,68.33,48.9,68.33
			S922.18,819.11,922.18,777.6z"/>
	</g>
</g>
<g>
	<path class="st0" d="M1094.73,855.31l-16.56-48.76h-43.46l-16.1,48.76h-37.65l58.1-171.02h35.6l58.36,171.02H1094.73z
		 M1068.59,774.91l-11.58-34.04c-0.22-0.65-0.44-1.29-0.65-1.92c-0.16,0.51-0.53,1.68-0.53,1.68l-11.6,34.29H1068.59z"/>
	<path class="st0" d="M1028.93,798.55l-16.1,48.76h-20.7l52.67-155.02h24.15l52.9,155.02h-21.39l-16.56-48.76H1028.93z
		 M1079.76,782.91l-15.18-44.62c-3.45-10.12-5.75-19.32-8.05-28.29h-0.46c-2.3,9.2-4.83,18.63-7.82,28.06l-15.18,44.85H1079.76z"/>
	<path class="st0" d="M1196.38,857.61c-37.94,0-63.43-26.04-63.43-64.81c0-39.51,27.88-67.11,67.8-67.11
		c13.6,0,25.26,3.41,31.64,6.59l5.99,2.99l-9.35,31.77l-8.79-5.02c-3.38-1.93-9.51-4.24-19.49-4.24c-23.1,0-31.33,17.61-31.33,34.09
		c0,20.43,12.03,33.63,30.64,33.63c9.79,0,16.05-2.39,21.62-4.84l8.87-3.9l6.97,30.65l-5.47,2.85
		C1225.24,853.81,1212.29,857.61,1196.38,857.61z"/>
	<path class="st0" d="M1228.34,843.17c-5.29,2.76-17.02,6.44-31.97,6.44c-33.58,0-55.43-22.77-55.43-56.81
		c0-34.27,23.46-59.11,59.8-59.11c11.96,0,22.54,2.99,28.06,5.75l-4.6,15.64c-4.83-2.76-12.42-5.29-23.46-5.29
		c-25.53,0-39.33,18.86-39.33,42.09c0,25.76,16.56,41.63,38.64,41.63c11.5,0,19.09-2.99,24.84-5.52L1228.34,843.17z"/>
	<path class="st0" d="M1297.11,857.61c-11.72,0-21.31-3.84-27.75-11.1c-6.77-7.14-9.92-18.07-9.92-34.39V759.4h-17.25v-31.41h17.25
		v-24.82l35.78-9.57v34.39h28.98v31.41h-28.98v52.03c0,13.62,3.81,13.62,7.18,13.62c4.63,0,7.79-0.6,9.63-1.1l9.49-2.59l1.86,30.71
		l-5.28,2.18C1312.83,856.41,1305.38,857.61,1297.11,857.61z"/>
	<path class="st0" d="M1287.22,704.02v31.97h28.98v15.41h-28.98v60.03c0,13.8,3.91,21.62,15.18,21.62c5.29,0,9.2-0.69,11.73-1.38
		l0.92,15.18c-3.91,1.61-10.12,2.76-17.94,2.76c-9.43,0-17.02-2.99-21.85-8.51c-5.75-5.98-7.82-15.87-7.82-28.98V751.4h-17.25
		v-15.41h17.25v-26.68L1287.22,704.02z"/>
</g>
</svg>
